<?xml version="1.0" encoding="utf-8" standalone="no"?>
<!DOCTYPE svg PUBLIC "-//W3C//DTD SVG 1.1//EN"
  "http://www.w3.org/Graphics/SVG/1.1/DTD/svg11.dtd">
<svg xmlns:xlink="http://www.w3.org/1999/xlink" width="460.8pt" height="345.6pt" viewBox="0 0 460.8 345.6" xmlns="http://www.w3.org/2000/svg" version="1.1">
 <metadata>
  <rdf:RDF xmlns:dc="http://purl.org/dc/elements/1.1/" xmlns:cc="http://creativecommons.org/ns#" xmlns:rdf="http://www.w3.org/1999/02/22-rdf-syntax-ns#">
   <cc:Work>
    <dc:type rdf:resource="http://purl.org/dc/dcmitype/StillImage"/>
    <dc:date>2022-12-17T10:54:55.046226</dc:date>
    <dc:format>image/svg+xml</dc:format>
    <dc:creator>
     <cc:Agent>
      <dc:title>Matplotlib v3.5.1, https://matplotlib.org/</dc:title>
     </cc:Agent>
    </dc:creator>
   </cc:Work>
  </rdf:RDF>
 </metadata>
 <defs>
  <style type="text/css">*{stroke-linejoin: round; stroke-linecap: butt}</style>
 </defs>
 <g id="figure_1">
  <g id="patch_1">
   <path d="M 0 345.6 
L 460.8 345.6 
L 460.8 0 
L 0 0 
z
" style="fill: #ffffff"/>
  </g>
  <g id="axes_1">
   <g id="patch_2">
    <path d="M 57.6 307.584 
L 414.72 307.584 
L 414.72 41.472 
L 57.6 41.472 
z
" style="fill: #ffffff"/>
   </g>
   <g id="matplotlib.axis_1">
    <g id="text_1">
     <!-- Input amplitude (dB) -->
     <g transform="translate(184.262344 319.182437)scale(0.1 -0.1)">
      <defs>
       <path id="DejaVuSans-49" d="M 628 4666 
L 1259 4666 
L 1259 0 
L 628 0 
L 628 4666 
z
" transform="scale(0.015625)"/>
       <path id="DejaVuSans-6e" d="M 3513 2113 
L 3513 0 
L 2938 0 
L 2938 2094 
Q 2938 2591 2744 2837 
Q 2550 3084 2163 3084 
Q 1697 3084 1428 2787 
Q 1159 2491 1159 1978 
L 1159 0 
L 581 0 
L 581 3500 
L 1159 3500 
L 1159 2956 
Q 1366 3272 1645 3428 
Q 1925 3584 2291 3584 
Q 2894 3584 3203 3211 
Q 3513 2838 3513 2113 
z
" transform="scale(0.015625)"/>
       <path id="DejaVuSans-70" d="M 1159 525 
L 1159 -1331 
L 581 -1331 
L 581 3500 
L 1159 3500 
L 1159 2969 
Q 1341 3281 1617 3432 
Q 1894 3584 2278 3584 
Q 2916 3584 3314 3078 
Q 3713 2572 3713 1747 
Q 3713 922 3314 415 
Q 2916 -91 2278 -91 
Q 1894 -91 1617 61 
Q 1341 213 1159 525 
z
M 3116 1747 
Q 3116 2381 2855 2742 
Q 2594 3103 2138 3103 
Q 1681 3103 1420 2742 
Q 1159 2381 1159 1747 
Q 1159 1113 1420 752 
Q 1681 391 2138 391 
Q 2594 391 2855 752 
Q 3116 1113 3116 1747 
z
" transform="scale(0.015625)"/>
       <path id="DejaVuSans-75" d="M 544 1381 
L 544 3500 
L 1119 3500 
L 1119 1403 
Q 1119 906 1312 657 
Q 1506 409 1894 409 
Q 2359 409 2629 706 
Q 2900 1003 2900 1516 
L 2900 3500 
L 3475 3500 
L 3475 0 
L 2900 0 
L 2900 538 
Q 2691 219 2414 64 
Q 2138 -91 1772 -91 
Q 1169 -91 856 284 
Q 544 659 544 1381 
z
M 1991 3584 
L 1991 3584 
z
" transform="scale(0.015625)"/>
       <path id="DejaVuSans-74" d="M 1172 4494 
L 1172 3500 
L 2356 3500 
L 2356 3053 
L 1172 3053 
L 1172 1153 
Q 1172 725 1289 603 
Q 1406 481 1766 481 
L 2356 481 
L 2356 0 
L 1766 0 
Q 1100 0 847 248 
Q 594 497 594 1153 
L 594 3053 
L 172 3053 
L 172 3500 
L 594 3500 
L 594 4494 
L 1172 4494 
z
" transform="scale(0.015625)"/>
       <path id="DejaVuSans-20" transform="scale(0.015625)"/>
       <path id="DejaVuSans-61" d="M 2194 1759 
Q 1497 1759 1228 1600 
Q 959 1441 959 1056 
Q 959 750 1161 570 
Q 1363 391 1709 391 
Q 2188 391 2477 730 
Q 2766 1069 2766 1631 
L 2766 1759 
L 2194 1759 
z
M 3341 1997 
L 3341 0 
L 2766 0 
L 2766 531 
Q 2569 213 2275 61 
Q 1981 -91 1556 -91 
Q 1019 -91 701 211 
Q 384 513 384 1019 
Q 384 1609 779 1909 
Q 1175 2209 1959 2209 
L 2766 2209 
L 2766 2266 
Q 2766 2663 2505 2880 
Q 2244 3097 1772 3097 
Q 1472 3097 1187 3025 
Q 903 2953 641 2809 
L 641 3341 
Q 956 3463 1253 3523 
Q 1550 3584 1831 3584 
Q 2591 3584 2966 3190 
Q 3341 2797 3341 1997 
z
" transform="scale(0.015625)"/>
       <path id="DejaVuSans-6d" d="M 3328 2828 
Q 3544 3216 3844 3400 
Q 4144 3584 4550 3584 
Q 5097 3584 5394 3201 
Q 5691 2819 5691 2113 
L 5691 0 
L 5113 0 
L 5113 2094 
Q 5113 2597 4934 2840 
Q 4756 3084 4391 3084 
Q 3944 3084 3684 2787 
Q 3425 2491 3425 1978 
L 3425 0 
L 2847 0 
L 2847 2094 
Q 2847 2600 2669 2842 
Q 2491 3084 2119 3084 
Q 1678 3084 1418 2786 
Q 1159 2488 1159 1978 
L 1159 0 
L 581 0 
L 581 3500 
L 1159 3500 
L 1159 2956 
Q 1356 3278 1631 3431 
Q 1906 3584 2284 3584 
Q 2666 3584 2933 3390 
Q 3200 3197 3328 2828 
z
" transform="scale(0.015625)"/>
       <path id="DejaVuSans-6c" d="M 603 4863 
L 1178 4863 
L 1178 0 
L 603 0 
L 603 4863 
z
" transform="scale(0.015625)"/>
       <path id="DejaVuSans-69" d="M 603 3500 
L 1178 3500 
L 1178 0 
L 603 0 
L 603 3500 
z
M 603 4863 
L 1178 4863 
L 1178 4134 
L 603 4134 
L 603 4863 
z
" transform="scale(0.015625)"/>
       <path id="DejaVuSans-64" d="M 2906 2969 
L 2906 4863 
L 3481 4863 
L 3481 0 
L 2906 0 
L 2906 525 
Q 2725 213 2448 61 
Q 2172 -91 1784 -91 
Q 1150 -91 751 415 
Q 353 922 353 1747 
Q 353 2572 751 3078 
Q 1150 3584 1784 3584 
Q 2172 3584 2448 3432 
Q 2725 3281 2906 2969 
z
M 947 1747 
Q 947 1113 1208 752 
Q 1469 391 1925 391 
Q 2381 391 2643 752 
Q 2906 1113 2906 1747 
Q 2906 2381 2643 2742 
Q 2381 3103 1925 3103 
Q 1469 3103 1208 2742 
Q 947 2381 947 1747 
z
" transform="scale(0.015625)"/>
       <path id="DejaVuSans-65" d="M 3597 1894 
L 3597 1613 
L 953 1613 
Q 991 1019 1311 708 
Q 1631 397 2203 397 
Q 2534 397 2845 478 
Q 3156 559 3463 722 
L 3463 178 
Q 3153 47 2828 -22 
Q 2503 -91 2169 -91 
Q 1331 -91 842 396 
Q 353 884 353 1716 
Q 353 2575 817 3079 
Q 1281 3584 2069 3584 
Q 2775 3584 3186 3129 
Q 3597 2675 3597 1894 
z
M 3022 2063 
Q 3016 2534 2758 2815 
Q 2500 3097 2075 3097 
Q 1594 3097 1305 2825 
Q 1016 2553 972 2059 
L 3022 2063 
z
" transform="scale(0.015625)"/>
       <path id="DejaVuSans-28" d="M 1984 4856 
Q 1566 4138 1362 3434 
Q 1159 2731 1159 2009 
Q 1159 1288 1364 580 
Q 1569 -128 1984 -844 
L 1484 -844 
Q 1016 -109 783 600 
Q 550 1309 550 2009 
Q 550 2706 781 3412 
Q 1013 4119 1484 4856 
L 1984 4856 
z
" transform="scale(0.015625)"/>
       <path id="DejaVuSans-42" d="M 1259 2228 
L 1259 519 
L 2272 519 
Q 2781 519 3026 730 
Q 3272 941 3272 1375 
Q 3272 1813 3026 2020 
Q 2781 2228 2272 2228 
L 1259 2228 
z
M 1259 4147 
L 1259 2741 
L 2194 2741 
Q 2656 2741 2882 2914 
Q 3109 3088 3109 3444 
Q 3109 3797 2882 3972 
Q 2656 4147 2194 4147 
L 1259 4147 
z
M 628 4666 
L 2241 4666 
Q 2963 4666 3353 4366 
Q 3744 4066 3744 3513 
Q 3744 3084 3544 2831 
Q 3344 2578 2956 2516 
Q 3422 2416 3680 2098 
Q 3938 1781 3938 1306 
Q 3938 681 3513 340 
Q 3088 0 2303 0 
L 628 0 
L 628 4666 
z
" transform="scale(0.015625)"/>
       <path id="DejaVuSans-29" d="M 513 4856 
L 1013 4856 
Q 1481 4119 1714 3412 
Q 1947 2706 1947 2009 
Q 1947 1309 1714 600 
Q 1481 -109 1013 -844 
L 513 -844 
Q 928 -128 1133 580 
Q 1338 1288 1338 2009 
Q 1338 2731 1133 3434 
Q 928 4138 513 4856 
z
" transform="scale(0.015625)"/>
      </defs>
      <use xlink:href="#DejaVuSans-49"/>
      <use xlink:href="#DejaVuSans-6e" x="29.492188"/>
      <use xlink:href="#DejaVuSans-70" x="92.871094"/>
      <use xlink:href="#DejaVuSans-75" x="156.347656"/>
      <use xlink:href="#DejaVuSans-74" x="219.726562"/>
      <use xlink:href="#DejaVuSans-20" x="258.935547"/>
      <use xlink:href="#DejaVuSans-61" x="290.722656"/>
      <use xlink:href="#DejaVuSans-6d" x="352.001953"/>
      <use xlink:href="#DejaVuSans-70" x="449.414062"/>
      <use xlink:href="#DejaVuSans-6c" x="512.890625"/>
      <use xlink:href="#DejaVuSans-69" x="540.673828"/>
      <use xlink:href="#DejaVuSans-74" x="568.457031"/>
      <use xlink:href="#DejaVuSans-75" x="607.666016"/>
      <use xlink:href="#DejaVuSans-64" x="671.044922"/>
      <use xlink:href="#DejaVuSans-65" x="734.521484"/>
      <use xlink:href="#DejaVuSans-20" x="796.044922"/>
      <use xlink:href="#DejaVuSans-28" x="827.832031"/>
      <use xlink:href="#DejaVuSans-64" x="866.845703"/>
      <use xlink:href="#DejaVuSans-42" x="930.322266"/>
      <use xlink:href="#DejaVuSans-29" x="998.925781"/>
     </g>
    </g>
   </g>
   <g id="matplotlib.axis_2">
    <g id="text_2">
     <!-- Output amplitude (dB) -->
     <g transform="translate(51.520312 230.84675)rotate(-90)scale(0.1 -0.1)">
      <defs>
       <path id="DejaVuSans-4f" d="M 2522 4238 
Q 1834 4238 1429 3725 
Q 1025 3213 1025 2328 
Q 1025 1447 1429 934 
Q 1834 422 2522 422 
Q 3209 422 3611 934 
Q 4013 1447 4013 2328 
Q 4013 3213 3611 3725 
Q 3209 4238 2522 4238 
z
M 2522 4750 
Q 3503 4750 4090 4092 
Q 4678 3434 4678 2328 
Q 4678 1225 4090 567 
Q 3503 -91 2522 -91 
Q 1538 -91 948 565 
Q 359 1222 359 2328 
Q 359 3434 948 4092 
Q 1538 4750 2522 4750 
z
" transform="scale(0.015625)"/>
      </defs>
      <use xlink:href="#DejaVuSans-4f"/>
      <use xlink:href="#DejaVuSans-75" x="78.710938"/>
      <use xlink:href="#DejaVuSans-74" x="142.089844"/>
      <use xlink:href="#DejaVuSans-70" x="181.298828"/>
      <use xlink:href="#DejaVuSans-75" x="244.775391"/>
      <use xlink:href="#DejaVuSans-74" x="308.154297"/>
      <use xlink:href="#DejaVuSans-20" x="347.363281"/>
      <use xlink:href="#DejaVuSans-61" x="379.150391"/>
      <use xlink:href="#DejaVuSans-6d" x="440.429688"/>
      <use xlink:href="#DejaVuSans-70" x="537.841797"/>
      <use xlink:href="#DejaVuSans-6c" x="601.318359"/>
      <use xlink:href="#DejaVuSans-69" x="629.101562"/>
      <use xlink:href="#DejaVuSans-74" x="656.884766"/>
      <use xlink:href="#DejaVuSans-75" x="696.09375"/>
      <use xlink:href="#DejaVuSans-64" x="759.472656"/>
      <use xlink:href="#DejaVuSans-65" x="822.949219"/>
      <use xlink:href="#DejaVuSans-20" x="884.472656"/>
      <use xlink:href="#DejaVuSans-28" x="916.259766"/>
      <use xlink:href="#DejaVuSans-64" x="955.273438"/>
      <use xlink:href="#DejaVuSans-42" x="1018.75"/>
      <use xlink:href="#DejaVuSans-29" x="1087.353516"/>
     </g>
    </g>
   </g>
   <g id="line2d_1">
    <path d="M 236.161623 307.584 
L 236.161623 41.472 
" clip-path="url(#p0374f0cdee)" style="fill: none; stroke-dasharray: 1.5,2.475; stroke-dashoffset: 0; stroke: #008000; stroke-width: 1.5"/>
   </g>
   <g id="line2d_2">
    <path d="M 183.679477 346.6 
L 236.314212 174.402927 
L 398.487273 41.474661 
L 398.487273 41.474661 
" clip-path="url(#p0374f0cdee)" style="fill: none; stroke-dasharray: 5.55,2.4; stroke-dashoffset: 0; stroke: #0000ff; stroke-width: 1.5"/>
   </g>
   <g id="line2d_3">
    <path d="M 187.461441 346.6 
L 187.573338 334.1952 
L 195.576153 334.1952 
L 195.689783 307.584 
L 203.692598 307.584 
L 203.806228 280.9728 
L 211.809042 280.9728 
L 211.922673 254.3616 
L 219.925487 254.3616 
L 220.039117 227.7504 
L 228.041932 227.7504 
L 228.155562 201.1392 
L 236.158377 201.1392 
L 236.272007 174.528 
L 268.624156 174.528 
L 268.737786 147.9168 
L 301.089935 147.9168 
L 301.203565 121.3056 
L 333.555714 121.3056 
L 333.669345 94.6944 
L 366.021494 94.6944 
L 366.135124 68.0832 
L 398.487273 68.0832 
L 398.487273 68.0832 
" clip-path="url(#p0374f0cdee)" style="fill: none; stroke: #ff0000; stroke-width: 1.5; stroke-linecap: square"/>
   </g>
   <g id="line2d_4">
    <path d="M 301.093182 121.3056 
L 301.221121 121.307651 
L 301.34893 121.313801 
L 301.476475 121.324045 
L 301.603626 121.338372 
L 301.730253 121.356766 
L 301.856226 121.37921 
L 301.981414 121.40568 
L 302.10569 121.436148 
L 302.228925 121.470585 
L 302.350993 121.508953 
L 302.471768 121.551214 
L 302.591127 121.597325 
L 302.708947 121.647237 
L 302.825107 121.700901 
L 302.939487 121.758259 
L 303.051969 121.819255 
L 303.162439 121.883824 
L 303.270782 121.9519 
L 303.376888 122.023415 
L 303.480648 122.098293 
L 303.581953 122.176459 
L 303.680702 122.257831 
L 303.776792 122.342327 
L 303.870124 122.429859 
L 303.960602 122.520338 
L 304.048135 122.61367 
L 304.13263 122.70976 
L 304.214003 122.808508 
L 304.292168 122.909814 
L 304.367047 123.013573 
L 304.438561 123.119679 
L 304.506638 123.228023 
L 304.571207 123.338493 
L 304.632202 123.450975 
L 304.689561 123.565355 
L 304.743224 123.681514 
L 304.793137 123.799334 
L 304.839247 123.918693 
L 304.881509 124.039469 
L 304.919877 124.161537 
L 304.954313 124.284772 
L 304.984782 124.409048 
L 305.011252 124.534236 
L 305.033695 124.660208 
L 305.05209 124.786835 
L 305.066417 124.913987 
L 305.07666 125.041532 
L 305.082811 125.16934 
L 305.084862 125.29728 
" clip-path="url(#p0374f0cdee)" style="fill: none; stroke: #000000; stroke-linecap: square"/>
   </g>
   <g id="line2d_5">
    <path d="M 305.084862 130.61952 
L 305.086913 130.74746 
L 305.093063 130.875268 
L 305.103307 131.002813 
L 305.117633 131.129965 
L 305.136028 131.256592 
L 305.158472 131.382564 
L 305.184941 131.507752 
L 305.21541 131.632028 
L 305.249846 131.755263 
L 305.288215 131.877331 
L 305.330476 131.998107 
L 305.376587 132.117466 
L 305.426499 132.235286 
L 305.480162 132.351445 
L 305.537521 132.465825 
L 305.598516 132.578307 
L 305.663085 132.688777 
L 305.731162 132.797121 
L 305.802677 132.903227 
L 305.877555 133.006986 
L 305.955721 133.108292 
L 306.037093 133.20704 
L 306.121589 133.30313 
L 306.209121 133.396462 
L 306.2996 133.486941 
L 306.392932 133.574473 
L 306.489021 133.658969 
L 306.58777 133.740341 
L 306.689076 133.818507 
L 306.792835 133.893385 
L 306.898941 133.9649 
L 307.007284 134.032976 
L 307.117754 134.097545 
L 307.230237 134.158541 
L 307.344617 134.215899 
L 307.460776 134.269563 
L 307.578596 134.319475 
L 307.697955 134.365586 
L 307.818731 134.407847 
L 307.940799 134.446215 
L 308.064034 134.480652 
L 308.188309 134.51112 
L 308.313498 134.53759 
L 308.43947 134.560034 
L 308.566097 134.578428 
L 308.693249 134.592755 
L 308.820794 134.602999 
L 308.948602 134.609149 
L 309.076542 134.6112 
" clip-path="url(#p0374f0cdee)" style="fill: none; stroke: #000000; stroke-linecap: square"/>
   </g>
   <g id="line2d_6">
    <path d="M 309.076542 134.6112 
L 308.948602 134.613251 
L 308.820794 134.619401 
L 308.693249 134.629645 
L 308.566097 134.643972 
L 308.43947 134.662366 
L 308.313498 134.68481 
L 308.188309 134.71128 
L 308.064034 134.741748 
L 307.940799 134.776185 
L 307.818731 134.814553 
L 307.697955 134.856814 
L 307.578596 134.902925 
L 307.460776 134.952837 
L 307.344617 135.006501 
L 307.230237 135.063859 
L 307.117754 135.124855 
L 307.007284 135.189424 
L 306.898941 135.2575 
L 306.792835 135.329015 
L 306.689076 135.403893 
L 306.58777 135.482059 
L 306.489021 135.563431 
L 306.392932 135.647927 
L 306.2996 135.735459 
L 306.209121 135.825938 
L 306.121589 135.91927 
L 306.037093 136.01536 
L 305.955721 136.114108 
L 305.877555 136.215414 
L 305.802677 136.319173 
L 305.731162 136.425279 
L 305.663085 136.533623 
L 305.598516 136.644093 
L 305.537521 136.756575 
L 305.480162 136.870955 
L 305.426499 136.987114 
L 305.376587 137.104934 
L 305.330476 137.224293 
L 305.288215 137.345069 
L 305.249846 137.467137 
L 305.21541 137.590372 
L 305.184941 137.714648 
L 305.158472 137.839836 
L 305.136028 137.965808 
L 305.117633 138.092435 
L 305.103307 138.219587 
L 305.093063 138.347132 
L 305.086913 138.47494 
L 305.084862 138.60288 
" clip-path="url(#p0374f0cdee)" style="fill: none; stroke: #000000; stroke-linecap: square"/>
   </g>
   <g id="line2d_7">
    <path d="M 305.084862 143.92512 
L 305.082811 144.05306 
L 305.07666 144.180868 
L 305.066417 144.308413 
L 305.05209 144.435565 
L 305.033695 144.562192 
L 305.011252 144.688164 
L 304.984782 144.813352 
L 304.954313 144.937628 
L 304.919877 145.060863 
L 304.881509 145.182931 
L 304.839247 145.303707 
L 304.793137 145.423066 
L 304.743224 145.540886 
L 304.689561 145.657045 
L 304.632202 145.771425 
L 304.571207 145.883907 
L 304.506638 145.994377 
L 304.438561 146.102721 
L 304.367047 146.208827 
L 304.292168 146.312586 
L 304.214003 146.413892 
L 304.13263 146.51264 
L 304.048135 146.60873 
L 303.960602 146.702062 
L 303.870124 146.792541 
L 303.776792 146.880073 
L 303.680702 146.964569 
L 303.581953 147.045941 
L 303.480648 147.124107 
L 303.376888 147.198985 
L 303.270782 147.2705 
L 303.162439 147.338576 
L 303.051969 147.403145 
L 302.939487 147.464141 
L 302.825107 147.521499 
L 302.708947 147.575163 
L 302.591127 147.625075 
L 302.471768 147.671186 
L 302.350993 147.713447 
L 302.228925 147.751815 
L 302.10569 147.786252 
L 301.981414 147.81672 
L 301.856226 147.84319 
L 301.730253 147.865634 
L 301.603626 147.884028 
L 301.476475 147.898355 
L 301.34893 147.908599 
L 301.221121 147.914749 
L 301.093182 147.9168 
" clip-path="url(#p0374f0cdee)" style="fill: none; stroke: #000000; stroke-linecap: square"/>
   </g>
   <g id="line2d_8">
    <path d="M 305.084862 125.29728 
L 305.086913 130.74746 
" clip-path="url(#p0374f0cdee)" style="fill: none; stroke: #000000; stroke-linecap: square"/>
   </g>
   <g id="line2d_9">
    <path d="M 305.084862 138.60288 
L 305.082811 144.05306 
" clip-path="url(#p0374f0cdee)" style="fill: none; stroke: #000000; stroke-linecap: square"/>
   </g>
   <g id="patch_3">
    <path d="M 57.6 307.584 
L 57.6 41.472 
" style="fill: none; stroke: #000000; stroke-width: 0.8; stroke-linejoin: miter; stroke-linecap: square"/>
   </g>
   <g id="patch_4">
    <path d="M 414.72 307.584 
L 414.72 41.472 
" style="fill: none; stroke: #000000; stroke-width: 0.8; stroke-linejoin: miter; stroke-linecap: square"/>
   </g>
   <g id="patch_5">
    <path d="M 57.6 307.584 
L 414.72 307.584 
" style="fill: none; stroke: #000000; stroke-width: 0.8; stroke-linejoin: miter; stroke-linecap: square"/>
   </g>
   <g id="patch_6">
    <path d="M 57.6 41.472 
L 414.72 41.472 
" style="fill: none; stroke: #000000; stroke-width: 0.8; stroke-linejoin: miter; stroke-linecap: square"/>
   </g>
   <g id="text_3">
    <!-- Threshold -->
    <g transform="translate(232.915045 147.9168)rotate(-90)scale(0.1 -0.1)">
     <defs>
      <path id="DejaVuSans-54" d="M -19 4666 
L 3928 4666 
L 3928 4134 
L 2272 4134 
L 2272 0 
L 1638 0 
L 1638 4134 
L -19 4134 
L -19 4666 
z
" transform="scale(0.015625)"/>
      <path id="DejaVuSans-68" d="M 3513 2113 
L 3513 0 
L 2938 0 
L 2938 2094 
Q 2938 2591 2744 2837 
Q 2550 3084 2163 3084 
Q 1697 3084 1428 2787 
Q 1159 2491 1159 1978 
L 1159 0 
L 581 0 
L 581 4863 
L 1159 4863 
L 1159 2956 
Q 1366 3272 1645 3428 
Q 1925 3584 2291 3584 
Q 2894 3584 3203 3211 
Q 3513 2838 3513 2113 
z
" transform="scale(0.015625)"/>
      <path id="DejaVuSans-72" d="M 2631 2963 
Q 2534 3019 2420 3045 
Q 2306 3072 2169 3072 
Q 1681 3072 1420 2755 
Q 1159 2438 1159 1844 
L 1159 0 
L 581 0 
L 581 3500 
L 1159 3500 
L 1159 2956 
Q 1341 3275 1631 3429 
Q 1922 3584 2338 3584 
Q 2397 3584 2469 3576 
Q 2541 3569 2628 3553 
L 2631 2963 
z
" transform="scale(0.015625)"/>
      <path id="DejaVuSans-73" d="M 2834 3397 
L 2834 2853 
Q 2591 2978 2328 3040 
Q 2066 3103 1784 3103 
Q 1356 3103 1142 2972 
Q 928 2841 928 2578 
Q 928 2378 1081 2264 
Q 1234 2150 1697 2047 
L 1894 2003 
Q 2506 1872 2764 1633 
Q 3022 1394 3022 966 
Q 3022 478 2636 193 
Q 2250 -91 1575 -91 
Q 1294 -91 989 -36 
Q 684 19 347 128 
L 347 722 
Q 666 556 975 473 
Q 1284 391 1588 391 
Q 1994 391 2212 530 
Q 2431 669 2431 922 
Q 2431 1156 2273 1281 
Q 2116 1406 1581 1522 
L 1381 1569 
Q 847 1681 609 1914 
Q 372 2147 372 2553 
Q 372 3047 722 3315 
Q 1072 3584 1716 3584 
Q 2034 3584 2315 3537 
Q 2597 3491 2834 3397 
z
" transform="scale(0.015625)"/>
      <path id="DejaVuSans-6f" d="M 1959 3097 
Q 1497 3097 1228 2736 
Q 959 2375 959 1747 
Q 959 1119 1226 758 
Q 1494 397 1959 397 
Q 2419 397 2687 759 
Q 2956 1122 2956 1747 
Q 2956 2369 2687 2733 
Q 2419 3097 1959 3097 
z
M 1959 3584 
Q 2709 3584 3137 3096 
Q 3566 2609 3566 1747 
Q 3566 888 3137 398 
Q 2709 -91 1959 -91 
Q 1206 -91 779 398 
Q 353 888 353 1747 
Q 353 2609 779 3096 
Q 1206 3584 1959 3584 
z
" transform="scale(0.015625)"/>
     </defs>
     <use xlink:href="#DejaVuSans-54"/>
     <use xlink:href="#DejaVuSans-68" x="61.083984"/>
     <use xlink:href="#DejaVuSans-72" x="124.462891"/>
     <use xlink:href="#DejaVuSans-65" x="163.326172"/>
     <use xlink:href="#DejaVuSans-73" x="224.849609"/>
     <use xlink:href="#DejaVuSans-68" x="276.949219"/>
     <use xlink:href="#DejaVuSans-6f" x="340.328125"/>
     <use xlink:href="#DejaVuSans-6c" x="401.509766"/>
     <use xlink:href="#DejaVuSans-64" x="429.292969"/>
    </g>
   </g>
   <g id="text_4">
    <!-- Ratio -->
    <g transform="translate(200.449266 280.9728)rotate(-73.038237)scale(0.1 -0.1)">
     <defs>
      <path id="DejaVuSans-52" d="M 2841 2188 
Q 3044 2119 3236 1894 
Q 3428 1669 3622 1275 
L 4263 0 
L 3584 0 
L 2988 1197 
Q 2756 1666 2539 1819 
Q 2322 1972 1947 1972 
L 1259 1972 
L 1259 0 
L 628 0 
L 628 4666 
L 2053 4666 
Q 2853 4666 3247 4331 
Q 3641 3997 3641 3322 
Q 3641 2881 3436 2590 
Q 3231 2300 2841 2188 
z
M 1259 4147 
L 1259 2491 
L 2053 2491 
Q 2509 2491 2742 2702 
Q 2975 2913 2975 3322 
Q 2975 3731 2742 3939 
Q 2509 4147 2053 4147 
L 1259 4147 
z
" transform="scale(0.015625)"/>
     </defs>
     <use xlink:href="#DejaVuSans-52"/>
     <use xlink:href="#DejaVuSans-61" x="67.232422"/>
     <use xlink:href="#DejaVuSans-74" x="128.511719"/>
     <use xlink:href="#DejaVuSans-69" x="167.720703"/>
     <use xlink:href="#DejaVuSans-6f" x="195.503906"/>
    </g>
   </g>
   <g id="text_5">
    <!-- Quantization step -->
    <g transform="translate(310.832915 137.370575)scale(0.1 -0.1)">
     <defs>
      <path id="DejaVuSans-51" d="M 2522 4238 
Q 1834 4238 1429 3725 
Q 1025 3213 1025 2328 
Q 1025 1447 1429 934 
Q 1834 422 2522 422 
Q 3209 422 3611 934 
Q 4013 1447 4013 2328 
Q 4013 3213 3611 3725 
Q 3209 4238 2522 4238 
z
M 3406 84 
L 4238 -825 
L 3475 -825 
L 2784 -78 
Q 2681 -84 2626 -87 
Q 2572 -91 2522 -91 
Q 1538 -91 948 567 
Q 359 1225 359 2328 
Q 359 3434 948 4092 
Q 1538 4750 2522 4750 
Q 3503 4750 4090 4092 
Q 4678 3434 4678 2328 
Q 4678 1516 4351 937 
Q 4025 359 3406 84 
z
" transform="scale(0.015625)"/>
      <path id="DejaVuSans-7a" d="M 353 3500 
L 3084 3500 
L 3084 2975 
L 922 459 
L 3084 459 
L 3084 0 
L 275 0 
L 275 525 
L 2438 3041 
L 353 3041 
L 353 3500 
z
" transform="scale(0.015625)"/>
     </defs>
     <use xlink:href="#DejaVuSans-51"/>
     <use xlink:href="#DejaVuSans-75" x="78.710938"/>
     <use xlink:href="#DejaVuSans-61" x="142.089844"/>
     <use xlink:href="#DejaVuSans-6e" x="203.369141"/>
     <use xlink:href="#DejaVuSans-74" x="266.748047"/>
     <use xlink:href="#DejaVuSans-69" x="305.957031"/>
     <use xlink:href="#DejaVuSans-7a" x="333.740234"/>
     <use xlink:href="#DejaVuSans-61" x="386.230469"/>
     <use xlink:href="#DejaVuSans-74" x="447.509766"/>
     <use xlink:href="#DejaVuSans-69" x="486.71875"/>
     <use xlink:href="#DejaVuSans-6f" x="514.501953"/>
     <use xlink:href="#DejaVuSans-6e" x="575.683594"/>
     <use xlink:href="#DejaVuSans-20" x="639.0625"/>
     <use xlink:href="#DejaVuSans-73" x="670.849609"/>
     <use xlink:href="#DejaVuSans-74" x="722.949219"/>
     <use xlink:href="#DejaVuSans-65" x="762.158203"/>
     <use xlink:href="#DejaVuSans-70" x="823.681641"/>
    </g>
   </g>
   <g id="text_6">
    <!-- Empy Gate and Quantization Response -->
    <g transform="translate(118.718438 35.472)scale(0.12 -0.12)">
     <defs>
      <path id="DejaVuSans-45" d="M 628 4666 
L 3578 4666 
L 3578 4134 
L 1259 4134 
L 1259 2753 
L 3481 2753 
L 3481 2222 
L 1259 2222 
L 1259 531 
L 3634 531 
L 3634 0 
L 628 0 
L 628 4666 
z
" transform="scale(0.015625)"/>
      <path id="DejaVuSans-79" d="M 2059 -325 
Q 1816 -950 1584 -1140 
Q 1353 -1331 966 -1331 
L 506 -1331 
L 506 -850 
L 844 -850 
Q 1081 -850 1212 -737 
Q 1344 -625 1503 -206 
L 1606 56 
L 191 3500 
L 800 3500 
L 1894 763 
L 2988 3500 
L 3597 3500 
L 2059 -325 
z
" transform="scale(0.015625)"/>
      <path id="DejaVuSans-47" d="M 3809 666 
L 3809 1919 
L 2778 1919 
L 2778 2438 
L 4434 2438 
L 4434 434 
Q 4069 175 3628 42 
Q 3188 -91 2688 -91 
Q 1594 -91 976 548 
Q 359 1188 359 2328 
Q 359 3472 976 4111 
Q 1594 4750 2688 4750 
Q 3144 4750 3555 4637 
Q 3966 4525 4313 4306 
L 4313 3634 
Q 3963 3931 3569 4081 
Q 3175 4231 2741 4231 
Q 1884 4231 1454 3753 
Q 1025 3275 1025 2328 
Q 1025 1384 1454 906 
Q 1884 428 2741 428 
Q 3075 428 3337 486 
Q 3600 544 3809 666 
z
" transform="scale(0.015625)"/>
     </defs>
     <use xlink:href="#DejaVuSans-45"/>
     <use xlink:href="#DejaVuSans-6d" x="63.183594"/>
     <use xlink:href="#DejaVuSans-70" x="160.595703"/>
     <use xlink:href="#DejaVuSans-79" x="224.072266"/>
     <use xlink:href="#DejaVuSans-20" x="283.251953"/>
     <use xlink:href="#DejaVuSans-47" x="315.039062"/>
     <use xlink:href="#DejaVuSans-61" x="392.529297"/>
     <use xlink:href="#DejaVuSans-74" x="453.808594"/>
     <use xlink:href="#DejaVuSans-65" x="493.017578"/>
     <use xlink:href="#DejaVuSans-20" x="554.541016"/>
     <use xlink:href="#DejaVuSans-61" x="586.328125"/>
     <use xlink:href="#DejaVuSans-6e" x="647.607422"/>
     <use xlink:href="#DejaVuSans-64" x="710.986328"/>
     <use xlink:href="#DejaVuSans-20" x="774.462891"/>
     <use xlink:href="#DejaVuSans-51" x="806.25"/>
     <use xlink:href="#DejaVuSans-75" x="884.960938"/>
     <use xlink:href="#DejaVuSans-61" x="948.339844"/>
     <use xlink:href="#DejaVuSans-6e" x="1009.619141"/>
     <use xlink:href="#DejaVuSans-74" x="1072.998047"/>
     <use xlink:href="#DejaVuSans-69" x="1112.207031"/>
     <use xlink:href="#DejaVuSans-7a" x="1139.990234"/>
     <use xlink:href="#DejaVuSans-61" x="1192.480469"/>
     <use xlink:href="#DejaVuSans-74" x="1253.759766"/>
     <use xlink:href="#DejaVuSans-69" x="1292.96875"/>
     <use xlink:href="#DejaVuSans-6f" x="1320.751953"/>
     <use xlink:href="#DejaVuSans-6e" x="1381.933594"/>
     <use xlink:href="#DejaVuSans-20" x="1445.3125"/>
     <use xlink:href="#DejaVuSans-52" x="1477.099609"/>
     <use xlink:href="#DejaVuSans-65" x="1542.082031"/>
     <use xlink:href="#DejaVuSans-73" x="1603.605469"/>
     <use xlink:href="#DejaVuSans-70" x="1655.705078"/>
     <use xlink:href="#DejaVuSans-6f" x="1719.181641"/>
     <use xlink:href="#DejaVuSans-6e" x="1780.363281"/>
     <use xlink:href="#DejaVuSans-73" x="1843.742188"/>
     <use xlink:href="#DejaVuSans-65" x="1895.841797"/>
    </g>
   </g>
   <g id="legend_1">
    <g id="patch_7">
     <path d="M 64.6 78.82825 
L 173.520312 78.82825 
Q 175.520312 78.82825 175.520312 76.82825 
L 175.520312 48.472 
Q 175.520312 46.472 173.520312 46.472 
L 64.6 46.472 
Q 62.6 46.472 62.6 48.472 
L 62.6 76.82825 
Q 62.6 78.82825 64.6 78.82825 
z
" style="fill: #ffffff; opacity: 0.8; stroke: #cccccc; stroke-linejoin: miter"/>
    </g>
    <g id="line2d_10">
     <path d="M 66.6 54.570437 
L 76.6 54.570437 
L 86.6 54.570437 
" style="fill: none; stroke-dasharray: 5.55,2.4; stroke-dashoffset: 0; stroke: #0000ff; stroke-width: 1.5"/>
    </g>
    <g id="text_7">
     <!-- gate response -->
     <g transform="translate(94.6 58.070437)scale(0.1 -0.1)">
      <defs>
       <path id="DejaVuSans-67" d="M 2906 1791 
Q 2906 2416 2648 2759 
Q 2391 3103 1925 3103 
Q 1463 3103 1205 2759 
Q 947 2416 947 1791 
Q 947 1169 1205 825 
Q 1463 481 1925 481 
Q 2391 481 2648 825 
Q 2906 1169 2906 1791 
z
M 3481 434 
Q 3481 -459 3084 -895 
Q 2688 -1331 1869 -1331 
Q 1566 -1331 1297 -1286 
Q 1028 -1241 775 -1147 
L 775 -588 
Q 1028 -725 1275 -790 
Q 1522 -856 1778 -856 
Q 2344 -856 2625 -561 
Q 2906 -266 2906 331 
L 2906 616 
Q 2728 306 2450 153 
Q 2172 0 1784 0 
Q 1141 0 747 490 
Q 353 981 353 1791 
Q 353 2603 747 3093 
Q 1141 3584 1784 3584 
Q 2172 3584 2450 3431 
Q 2728 3278 2906 2969 
L 2906 3500 
L 3481 3500 
L 3481 434 
z
" transform="scale(0.015625)"/>
      </defs>
      <use xlink:href="#DejaVuSans-67"/>
      <use xlink:href="#DejaVuSans-61" x="63.476562"/>
      <use xlink:href="#DejaVuSans-74" x="124.755859"/>
      <use xlink:href="#DejaVuSans-65" x="163.964844"/>
      <use xlink:href="#DejaVuSans-20" x="225.488281"/>
      <use xlink:href="#DejaVuSans-72" x="257.275391"/>
      <use xlink:href="#DejaVuSans-65" x="296.138672"/>
      <use xlink:href="#DejaVuSans-73" x="357.662109"/>
      <use xlink:href="#DejaVuSans-70" x="409.761719"/>
      <use xlink:href="#DejaVuSans-6f" x="473.238281"/>
      <use xlink:href="#DejaVuSans-6e" x="534.419922"/>
      <use xlink:href="#DejaVuSans-73" x="597.798828"/>
      <use xlink:href="#DejaVuSans-65" x="649.898438"/>
     </g>
    </g>
    <g id="line2d_11">
     <path d="M 66.6 69.248562 
L 76.6 69.248562 
L 86.6 69.248562 
" style="fill: none; stroke: #ff0000; stroke-width: 1.5; stroke-linecap: square"/>
    </g>
    <g id="text_8">
     <!-- Empy response -->
     <g transform="translate(94.6 72.748562)scale(0.1 -0.1)">
      <use xlink:href="#DejaVuSans-45"/>
      <use xlink:href="#DejaVuSans-6d" x="63.183594"/>
      <use xlink:href="#DejaVuSans-70" x="160.595703"/>
      <use xlink:href="#DejaVuSans-79" x="224.072266"/>
      <use xlink:href="#DejaVuSans-20" x="283.251953"/>
      <use xlink:href="#DejaVuSans-72" x="315.039062"/>
      <use xlink:href="#DejaVuSans-65" x="353.902344"/>
      <use xlink:href="#DejaVuSans-73" x="415.425781"/>
      <use xlink:href="#DejaVuSans-70" x="467.525391"/>
      <use xlink:href="#DejaVuSans-6f" x="531.001953"/>
      <use xlink:href="#DejaVuSans-6e" x="592.183594"/>
      <use xlink:href="#DejaVuSans-73" x="655.5625"/>
      <use xlink:href="#DejaVuSans-65" x="707.662109"/>
     </g>
    </g>
   </g>
  </g>
 </g>
 <defs>
  <clipPath id="p0374f0cdee">
   <rect x="57.6" y="41.472" width="357.12" height="266.112"/>
  </clipPath>
 </defs>
</svg>
