<?xml version="1.0" encoding="utf-8" standalone="no"?>
<!DOCTYPE svg PUBLIC "-//W3C//DTD SVG 1.1//EN"
  "http://www.w3.org/Graphics/SVG/1.1/DTD/svg11.dtd">
<svg xmlns:xlink="http://www.w3.org/1999/xlink" width="509.76pt" height="363.6pt" viewBox="0 0 509.76 363.6" xmlns="http://www.w3.org/2000/svg" version="1.1">
 <metadata>
  <rdf:RDF xmlns:dc="http://purl.org/dc/elements/1.1/" xmlns:cc="http://creativecommons.org/ns#" xmlns:rdf="http://www.w3.org/1999/02/22-rdf-syntax-ns#">
   <cc:Work>
    <dc:type rdf:resource="http://purl.org/dc/dcmitype/StillImage"/>
    <dc:date>2022-12-14T13:16:20.486413</dc:date>
    <dc:format>image/svg+xml</dc:format>
    <dc:creator>
     <cc:Agent>
      <dc:title>Matplotlib v3.5.1, https://matplotlib.org/</dc:title>
     </cc:Agent>
    </dc:creator>
   </cc:Work>
  </rdf:RDF>
 </metadata>
 <defs>
  <style type="text/css">*{stroke-linejoin: round; stroke-linecap: butt}</style>
 </defs>
 <g id="figure_1">
  <g id="patch_1">
   <path d="M 0 363.6 
L 509.76 363.6 
L 509.76 0 
L 0 0 
z
" style="fill: #ffffff"/>
  </g>
  <g id="axes_1">
   <g id="patch_2">
    <path d="M 63.72 323.604 
L 458.784 323.604 
L 458.784 43.632 
L 63.72 43.632 
z
" style="fill: #ffffff"/>
   </g>
   <g id="matplotlib.axis_1">
    <g id="xtick_1">
     <g id="line2d_1">
      <defs>
       <path id="m0cd593dc9e" d="M 0 0 
L 0 3.5 
" style="stroke: #000000; stroke-width: 0.8"/>
      </defs>
      <g>
       <use xlink:href="#m0cd593dc9e" x="81.677455" y="323.604" style="stroke: #000000; stroke-width: 0.8"/>
      </g>
     </g>
     <g id="text_1">
      <!-- 0 -->
      <g transform="translate(78.496205 338.202437)scale(0.1 -0.1)">
       <defs>
        <path id="DejaVuSans-30" d="M 2034 4250 
Q 1547 4250 1301 3770 
Q 1056 3291 1056 2328 
Q 1056 1369 1301 889 
Q 1547 409 2034 409 
Q 2525 409 2770 889 
Q 3016 1369 3016 2328 
Q 3016 3291 2770 3770 
Q 2525 4250 2034 4250 
z
M 2034 4750 
Q 2819 4750 3233 4129 
Q 3647 3509 3647 2328 
Q 3647 1150 3233 529 
Q 2819 -91 2034 -91 
Q 1250 -91 836 529 
Q 422 1150 422 2328 
Q 422 3509 836 4129 
Q 1250 4750 2034 4750 
z
" transform="scale(0.015625)"/>
       </defs>
       <use xlink:href="#DejaVuSans-30"/>
      </g>
     </g>
    </g>
    <g id="xtick_2">
     <g id="line2d_2">
      <g>
       <use xlink:href="#m0cd593dc9e" x="153.563434" y="323.604" style="stroke: #000000; stroke-width: 0.8"/>
      </g>
     </g>
     <g id="text_2">
      <!-- 256 -->
      <g transform="translate(144.019684 338.202437)scale(0.1 -0.1)">
       <defs>
        <path id="DejaVuSans-32" d="M 1228 531 
L 3431 531 
L 3431 0 
L 469 0 
L 469 531 
Q 828 903 1448 1529 
Q 2069 2156 2228 2338 
Q 2531 2678 2651 2914 
Q 2772 3150 2772 3378 
Q 2772 3750 2511 3984 
Q 2250 4219 1831 4219 
Q 1534 4219 1204 4116 
Q 875 4013 500 3803 
L 500 4441 
Q 881 4594 1212 4672 
Q 1544 4750 1819 4750 
Q 2544 4750 2975 4387 
Q 3406 4025 3406 3419 
Q 3406 3131 3298 2873 
Q 3191 2616 2906 2266 
Q 2828 2175 2409 1742 
Q 1991 1309 1228 531 
z
" transform="scale(0.015625)"/>
        <path id="DejaVuSans-35" d="M 691 4666 
L 3169 4666 
L 3169 4134 
L 1269 4134 
L 1269 2991 
Q 1406 3038 1543 3061 
Q 1681 3084 1819 3084 
Q 2600 3084 3056 2656 
Q 3513 2228 3513 1497 
Q 3513 744 3044 326 
Q 2575 -91 1722 -91 
Q 1428 -91 1123 -41 
Q 819 9 494 109 
L 494 744 
Q 775 591 1075 516 
Q 1375 441 1709 441 
Q 2250 441 2565 725 
Q 2881 1009 2881 1497 
Q 2881 1984 2565 2268 
Q 2250 2553 1709 2553 
Q 1456 2553 1204 2497 
Q 953 2441 691 2322 
L 691 4666 
z
" transform="scale(0.015625)"/>
        <path id="DejaVuSans-36" d="M 2113 2584 
Q 1688 2584 1439 2293 
Q 1191 2003 1191 1497 
Q 1191 994 1439 701 
Q 1688 409 2113 409 
Q 2538 409 2786 701 
Q 3034 994 3034 1497 
Q 3034 2003 2786 2293 
Q 2538 2584 2113 2584 
z
M 3366 4563 
L 3366 3988 
Q 3128 4100 2886 4159 
Q 2644 4219 2406 4219 
Q 1781 4219 1451 3797 
Q 1122 3375 1075 2522 
Q 1259 2794 1537 2939 
Q 1816 3084 2150 3084 
Q 2853 3084 3261 2657 
Q 3669 2231 3669 1497 
Q 3669 778 3244 343 
Q 2819 -91 2113 -91 
Q 1303 -91 875 529 
Q 447 1150 447 2328 
Q 447 3434 972 4092 
Q 1497 4750 2381 4750 
Q 2619 4750 2861 4703 
Q 3103 4656 3366 4563 
z
" transform="scale(0.015625)"/>
       </defs>
       <use xlink:href="#DejaVuSans-32"/>
       <use xlink:href="#DejaVuSans-35" x="63.623047"/>
       <use xlink:href="#DejaVuSans-36" x="127.246094"/>
      </g>
     </g>
    </g>
    <g id="xtick_3">
     <g id="line2d_3">
      <g>
       <use xlink:href="#m0cd593dc9e" x="225.449413" y="323.604" style="stroke: #000000; stroke-width: 0.8"/>
      </g>
     </g>
     <g id="text_3">
      <!-- 512 -->
      <g transform="translate(215.905663 338.202437)scale(0.1 -0.1)">
       <defs>
        <path id="DejaVuSans-31" d="M 794 531 
L 1825 531 
L 1825 4091 
L 703 3866 
L 703 4441 
L 1819 4666 
L 2450 4666 
L 2450 531 
L 3481 531 
L 3481 0 
L 794 0 
L 794 531 
z
" transform="scale(0.015625)"/>
       </defs>
       <use xlink:href="#DejaVuSans-35"/>
       <use xlink:href="#DejaVuSans-31" x="63.623047"/>
       <use xlink:href="#DejaVuSans-32" x="127.246094"/>
      </g>
     </g>
    </g>
    <g id="xtick_4">
     <g id="line2d_4">
      <g>
       <use xlink:href="#m0cd593dc9e" x="297.335392" y="323.604" style="stroke: #000000; stroke-width: 0.8"/>
      </g>
     </g>
     <g id="text_4">
      <!-- 768 -->
      <g transform="translate(287.791642 338.202437)scale(0.1 -0.1)">
       <defs>
        <path id="DejaVuSans-37" d="M 525 4666 
L 3525 4666 
L 3525 4397 
L 1831 0 
L 1172 0 
L 2766 4134 
L 525 4134 
L 525 4666 
z
" transform="scale(0.015625)"/>
        <path id="DejaVuSans-38" d="M 2034 2216 
Q 1584 2216 1326 1975 
Q 1069 1734 1069 1313 
Q 1069 891 1326 650 
Q 1584 409 2034 409 
Q 2484 409 2743 651 
Q 3003 894 3003 1313 
Q 3003 1734 2745 1975 
Q 2488 2216 2034 2216 
z
M 1403 2484 
Q 997 2584 770 2862 
Q 544 3141 544 3541 
Q 544 4100 942 4425 
Q 1341 4750 2034 4750 
Q 2731 4750 3128 4425 
Q 3525 4100 3525 3541 
Q 3525 3141 3298 2862 
Q 3072 2584 2669 2484 
Q 3125 2378 3379 2068 
Q 3634 1759 3634 1313 
Q 3634 634 3220 271 
Q 2806 -91 2034 -91 
Q 1263 -91 848 271 
Q 434 634 434 1313 
Q 434 1759 690 2068 
Q 947 2378 1403 2484 
z
M 1172 3481 
Q 1172 3119 1398 2916 
Q 1625 2713 2034 2713 
Q 2441 2713 2670 2916 
Q 2900 3119 2900 3481 
Q 2900 3844 2670 4047 
Q 2441 4250 2034 4250 
Q 1625 4250 1398 4047 
Q 1172 3844 1172 3481 
z
" transform="scale(0.015625)"/>
       </defs>
       <use xlink:href="#DejaVuSans-37"/>
       <use xlink:href="#DejaVuSans-36" x="63.623047"/>
       <use xlink:href="#DejaVuSans-38" x="127.246094"/>
      </g>
     </g>
    </g>
    <g id="xtick_5">
     <g id="line2d_5">
      <g>
       <use xlink:href="#m0cd593dc9e" x="369.221371" y="323.604" style="stroke: #000000; stroke-width: 0.8"/>
      </g>
     </g>
     <g id="text_5">
      <!-- 1024 -->
      <g transform="translate(356.496371 338.202437)scale(0.1 -0.1)">
       <defs>
        <path id="DejaVuSans-34" d="M 2419 4116 
L 825 1625 
L 2419 1625 
L 2419 4116 
z
M 2253 4666 
L 3047 4666 
L 3047 1625 
L 3713 1625 
L 3713 1100 
L 3047 1100 
L 3047 0 
L 2419 0 
L 2419 1100 
L 313 1100 
L 313 1709 
L 2253 4666 
z
" transform="scale(0.015625)"/>
       </defs>
       <use xlink:href="#DejaVuSans-31"/>
       <use xlink:href="#DejaVuSans-30" x="63.623047"/>
       <use xlink:href="#DejaVuSans-32" x="127.246094"/>
       <use xlink:href="#DejaVuSans-34" x="190.869141"/>
      </g>
     </g>
    </g>
    <g id="xtick_6">
     <g id="line2d_6">
      <g>
       <use xlink:href="#m0cd593dc9e" x="441.10735" y="323.604" style="stroke: #000000; stroke-width: 0.8"/>
      </g>
     </g>
     <g id="text_6">
      <!-- 1280 -->
      <g transform="translate(428.38235 338.202437)scale(0.1 -0.1)">
       <use xlink:href="#DejaVuSans-31"/>
       <use xlink:href="#DejaVuSans-32" x="63.623047"/>
       <use xlink:href="#DejaVuSans-38" x="127.246094"/>
       <use xlink:href="#DejaVuSans-30" x="190.869141"/>
      </g>
     </g>
    </g>
    <g id="text_7">
     <!-- Sample Index -->
     <g transform="translate(227.148094 351.880562)scale(0.1 -0.1)">
      <defs>
       <path id="DejaVuSans-53" d="M 3425 4513 
L 3425 3897 
Q 3066 4069 2747 4153 
Q 2428 4238 2131 4238 
Q 1616 4238 1336 4038 
Q 1056 3838 1056 3469 
Q 1056 3159 1242 3001 
Q 1428 2844 1947 2747 
L 2328 2669 
Q 3034 2534 3370 2195 
Q 3706 1856 3706 1288 
Q 3706 609 3251 259 
Q 2797 -91 1919 -91 
Q 1588 -91 1214 -16 
Q 841 59 441 206 
L 441 856 
Q 825 641 1194 531 
Q 1563 422 1919 422 
Q 2459 422 2753 634 
Q 3047 847 3047 1241 
Q 3047 1584 2836 1778 
Q 2625 1972 2144 2069 
L 1759 2144 
Q 1053 2284 737 2584 
Q 422 2884 422 3419 
Q 422 4038 858 4394 
Q 1294 4750 2059 4750 
Q 2388 4750 2728 4690 
Q 3069 4631 3425 4513 
z
" transform="scale(0.015625)"/>
       <path id="DejaVuSans-61" d="M 2194 1759 
Q 1497 1759 1228 1600 
Q 959 1441 959 1056 
Q 959 750 1161 570 
Q 1363 391 1709 391 
Q 2188 391 2477 730 
Q 2766 1069 2766 1631 
L 2766 1759 
L 2194 1759 
z
M 3341 1997 
L 3341 0 
L 2766 0 
L 2766 531 
Q 2569 213 2275 61 
Q 1981 -91 1556 -91 
Q 1019 -91 701 211 
Q 384 513 384 1019 
Q 384 1609 779 1909 
Q 1175 2209 1959 2209 
L 2766 2209 
L 2766 2266 
Q 2766 2663 2505 2880 
Q 2244 3097 1772 3097 
Q 1472 3097 1187 3025 
Q 903 2953 641 2809 
L 641 3341 
Q 956 3463 1253 3523 
Q 1550 3584 1831 3584 
Q 2591 3584 2966 3190 
Q 3341 2797 3341 1997 
z
" transform="scale(0.015625)"/>
       <path id="DejaVuSans-6d" d="M 3328 2828 
Q 3544 3216 3844 3400 
Q 4144 3584 4550 3584 
Q 5097 3584 5394 3201 
Q 5691 2819 5691 2113 
L 5691 0 
L 5113 0 
L 5113 2094 
Q 5113 2597 4934 2840 
Q 4756 3084 4391 3084 
Q 3944 3084 3684 2787 
Q 3425 2491 3425 1978 
L 3425 0 
L 2847 0 
L 2847 2094 
Q 2847 2600 2669 2842 
Q 2491 3084 2119 3084 
Q 1678 3084 1418 2786 
Q 1159 2488 1159 1978 
L 1159 0 
L 581 0 
L 581 3500 
L 1159 3500 
L 1159 2956 
Q 1356 3278 1631 3431 
Q 1906 3584 2284 3584 
Q 2666 3584 2933 3390 
Q 3200 3197 3328 2828 
z
" transform="scale(0.015625)"/>
       <path id="DejaVuSans-70" d="M 1159 525 
L 1159 -1331 
L 581 -1331 
L 581 3500 
L 1159 3500 
L 1159 2969 
Q 1341 3281 1617 3432 
Q 1894 3584 2278 3584 
Q 2916 3584 3314 3078 
Q 3713 2572 3713 1747 
Q 3713 922 3314 415 
Q 2916 -91 2278 -91 
Q 1894 -91 1617 61 
Q 1341 213 1159 525 
z
M 3116 1747 
Q 3116 2381 2855 2742 
Q 2594 3103 2138 3103 
Q 1681 3103 1420 2742 
Q 1159 2381 1159 1747 
Q 1159 1113 1420 752 
Q 1681 391 2138 391 
Q 2594 391 2855 752 
Q 3116 1113 3116 1747 
z
" transform="scale(0.015625)"/>
       <path id="DejaVuSans-6c" d="M 603 4863 
L 1178 4863 
L 1178 0 
L 603 0 
L 603 4863 
z
" transform="scale(0.015625)"/>
       <path id="DejaVuSans-65" d="M 3597 1894 
L 3597 1613 
L 953 1613 
Q 991 1019 1311 708 
Q 1631 397 2203 397 
Q 2534 397 2845 478 
Q 3156 559 3463 722 
L 3463 178 
Q 3153 47 2828 -22 
Q 2503 -91 2169 -91 
Q 1331 -91 842 396 
Q 353 884 353 1716 
Q 353 2575 817 3079 
Q 1281 3584 2069 3584 
Q 2775 3584 3186 3129 
Q 3597 2675 3597 1894 
z
M 3022 2063 
Q 3016 2534 2758 2815 
Q 2500 3097 2075 3097 
Q 1594 3097 1305 2825 
Q 1016 2553 972 2059 
L 3022 2063 
z
" transform="scale(0.015625)"/>
       <path id="DejaVuSans-20" transform="scale(0.015625)"/>
       <path id="DejaVuSans-49" d="M 628 4666 
L 1259 4666 
L 1259 0 
L 628 0 
L 628 4666 
z
" transform="scale(0.015625)"/>
       <path id="DejaVuSans-6e" d="M 3513 2113 
L 3513 0 
L 2938 0 
L 2938 2094 
Q 2938 2591 2744 2837 
Q 2550 3084 2163 3084 
Q 1697 3084 1428 2787 
Q 1159 2491 1159 1978 
L 1159 0 
L 581 0 
L 581 3500 
L 1159 3500 
L 1159 2956 
Q 1366 3272 1645 3428 
Q 1925 3584 2291 3584 
Q 2894 3584 3203 3211 
Q 3513 2838 3513 2113 
z
" transform="scale(0.015625)"/>
       <path id="DejaVuSans-64" d="M 2906 2969 
L 2906 4863 
L 3481 4863 
L 3481 0 
L 2906 0 
L 2906 525 
Q 2725 213 2448 61 
Q 2172 -91 1784 -91 
Q 1150 -91 751 415 
Q 353 922 353 1747 
Q 353 2572 751 3078 
Q 1150 3584 1784 3584 
Q 2172 3584 2448 3432 
Q 2725 3281 2906 2969 
z
M 947 1747 
Q 947 1113 1208 752 
Q 1469 391 1925 391 
Q 2381 391 2643 752 
Q 2906 1113 2906 1747 
Q 2906 2381 2643 2742 
Q 2381 3103 1925 3103 
Q 1469 3103 1208 2742 
Q 947 2381 947 1747 
z
" transform="scale(0.015625)"/>
       <path id="DejaVuSans-78" d="M 3513 3500 
L 2247 1797 
L 3578 0 
L 2900 0 
L 1881 1375 
L 863 0 
L 184 0 
L 1544 1831 
L 300 3500 
L 978 3500 
L 1906 2253 
L 2834 3500 
L 3513 3500 
z
" transform="scale(0.015625)"/>
      </defs>
      <use xlink:href="#DejaVuSans-53"/>
      <use xlink:href="#DejaVuSans-61" x="63.476562"/>
      <use xlink:href="#DejaVuSans-6d" x="124.755859"/>
      <use xlink:href="#DejaVuSans-70" x="222.167969"/>
      <use xlink:href="#DejaVuSans-6c" x="285.644531"/>
      <use xlink:href="#DejaVuSans-65" x="313.427734"/>
      <use xlink:href="#DejaVuSans-20" x="374.951172"/>
      <use xlink:href="#DejaVuSans-49" x="406.738281"/>
      <use xlink:href="#DejaVuSans-6e" x="436.230469"/>
      <use xlink:href="#DejaVuSans-64" x="499.609375"/>
      <use xlink:href="#DejaVuSans-65" x="563.085938"/>
      <use xlink:href="#DejaVuSans-78" x="622.859375"/>
     </g>
    </g>
   </g>
   <g id="matplotlib.axis_2">
    <g id="ytick_1">
     <g id="line2d_7">
      <defs>
       <path id="me992503a39" d="M 0 0 
L -3.5 0 
" style="stroke: #000000; stroke-width: 0.8"/>
      </defs>
      <g>
       <use xlink:href="#me992503a39" x="63.72" y="310.878" style="stroke: #000000; stroke-width: 0.8"/>
      </g>
     </g>
     <g id="text_8">
      <!-- 0.0 -->
      <g transform="translate(40.816875 314.677219)scale(0.1 -0.1)">
       <defs>
        <path id="DejaVuSans-2e" d="M 684 794 
L 1344 794 
L 1344 0 
L 684 0 
L 684 794 
z
" transform="scale(0.015625)"/>
       </defs>
       <use xlink:href="#DejaVuSans-30"/>
       <use xlink:href="#DejaVuSans-2e" x="63.623047"/>
       <use xlink:href="#DejaVuSans-30" x="95.410156"/>
      </g>
     </g>
    </g>
    <g id="ytick_2">
     <g id="line2d_8">
      <g>
       <use xlink:href="#me992503a39" x="63.72" y="259.973519" style="stroke: #000000; stroke-width: 0.8"/>
      </g>
     </g>
     <g id="text_9">
      <!-- 0.2 -->
      <g transform="translate(40.816875 263.772738)scale(0.1 -0.1)">
       <use xlink:href="#DejaVuSans-30"/>
       <use xlink:href="#DejaVuSans-2e" x="63.623047"/>
       <use xlink:href="#DejaVuSans-32" x="95.410156"/>
      </g>
     </g>
    </g>
    <g id="ytick_3">
     <g id="line2d_9">
      <g>
       <use xlink:href="#me992503a39" x="63.72" y="209.069038" style="stroke: #000000; stroke-width: 0.8"/>
      </g>
     </g>
     <g id="text_10">
      <!-- 0.4 -->
      <g transform="translate(40.816875 212.868257)scale(0.1 -0.1)">
       <use xlink:href="#DejaVuSans-30"/>
       <use xlink:href="#DejaVuSans-2e" x="63.623047"/>
       <use xlink:href="#DejaVuSans-34" x="95.410156"/>
      </g>
     </g>
    </g>
    <g id="ytick_4">
     <g id="line2d_10">
      <g>
       <use xlink:href="#me992503a39" x="63.72" y="158.164557" style="stroke: #000000; stroke-width: 0.8"/>
      </g>
     </g>
     <g id="text_11">
      <!-- 0.6 -->
      <g transform="translate(40.816875 161.963776)scale(0.1 -0.1)">
       <use xlink:href="#DejaVuSans-30"/>
       <use xlink:href="#DejaVuSans-2e" x="63.623047"/>
       <use xlink:href="#DejaVuSans-36" x="95.410156"/>
      </g>
     </g>
    </g>
    <g id="ytick_5">
     <g id="line2d_11">
      <g>
       <use xlink:href="#me992503a39" x="63.72" y="107.260076" style="stroke: #000000; stroke-width: 0.8"/>
      </g>
     </g>
     <g id="text_12">
      <!-- 0.8 -->
      <g transform="translate(40.816875 111.059295)scale(0.1 -0.1)">
       <use xlink:href="#DejaVuSans-30"/>
       <use xlink:href="#DejaVuSans-2e" x="63.623047"/>
       <use xlink:href="#DejaVuSans-38" x="95.410156"/>
      </g>
     </g>
    </g>
    <g id="ytick_6">
     <g id="line2d_12">
      <g>
       <use xlink:href="#me992503a39" x="63.72" y="56.355595" style="stroke: #000000; stroke-width: 0.8"/>
      </g>
     </g>
     <g id="text_13">
      <!-- 1.0 -->
      <g transform="translate(40.816875 60.154814)scale(0.1 -0.1)">
       <use xlink:href="#DejaVuSans-31"/>
       <use xlink:href="#DejaVuSans-2e" x="63.623047"/>
       <use xlink:href="#DejaVuSans-30" x="95.410156"/>
      </g>
     </g>
    </g>
    <g id="text_14">
     <!-- Amplitude -->
     <g transform="translate(34.737187 209.240656)rotate(-90)scale(0.1 -0.1)">
      <defs>
       <path id="DejaVuSans-41" d="M 2188 4044 
L 1331 1722 
L 3047 1722 
L 2188 4044 
z
M 1831 4666 
L 2547 4666 
L 4325 0 
L 3669 0 
L 3244 1197 
L 1141 1197 
L 716 0 
L 50 0 
L 1831 4666 
z
" transform="scale(0.015625)"/>
       <path id="DejaVuSans-69" d="M 603 3500 
L 1178 3500 
L 1178 0 
L 603 0 
L 603 3500 
z
M 603 4863 
L 1178 4863 
L 1178 4134 
L 603 4134 
L 603 4863 
z
" transform="scale(0.015625)"/>
       <path id="DejaVuSans-74" d="M 1172 4494 
L 1172 3500 
L 2356 3500 
L 2356 3053 
L 1172 3053 
L 1172 1153 
Q 1172 725 1289 603 
Q 1406 481 1766 481 
L 2356 481 
L 2356 0 
L 1766 0 
Q 1100 0 847 248 
Q 594 497 594 1153 
L 594 3053 
L 172 3053 
L 172 3500 
L 594 3500 
L 594 4494 
L 1172 4494 
z
" transform="scale(0.015625)"/>
       <path id="DejaVuSans-75" d="M 544 1381 
L 544 3500 
L 1119 3500 
L 1119 1403 
Q 1119 906 1312 657 
Q 1506 409 1894 409 
Q 2359 409 2629 706 
Q 2900 1003 2900 1516 
L 2900 3500 
L 3475 3500 
L 3475 0 
L 2900 0 
L 2900 538 
Q 2691 219 2414 64 
Q 2138 -91 1772 -91 
Q 1169 -91 856 284 
Q 544 659 544 1381 
z
M 1991 3584 
L 1991 3584 
z
" transform="scale(0.015625)"/>
      </defs>
      <use xlink:href="#DejaVuSans-41"/>
      <use xlink:href="#DejaVuSans-6d" x="68.408203"/>
      <use xlink:href="#DejaVuSans-70" x="165.820312"/>
      <use xlink:href="#DejaVuSans-6c" x="229.296875"/>
      <use xlink:href="#DejaVuSans-69" x="257.080078"/>
      <use xlink:href="#DejaVuSans-74" x="284.863281"/>
      <use xlink:href="#DejaVuSans-75" x="324.072266"/>
      <use xlink:href="#DejaVuSans-64" x="387.451172"/>
      <use xlink:href="#DejaVuSans-65" x="450.927734"/>
     </g>
    </g>
   </g>
   <g id="line2d_13">
    <path d="M 81.677455 310.878 
L 82.519868 310.791428 
L 83.362282 310.53183 
L 84.485501 309.917192 
L 85.608719 308.997093 
L 86.731937 307.773759 
L 87.855156 306.250149 
L 89.259179 303.929054 
L 90.663202 301.153357 
L 92.34803 297.237333 
L 94.032857 292.703178 
L 95.998489 286.665171 
L 97.964122 279.86423 
L 100.210559 271.222358 
L 102.7378 260.492317 
L 105.545846 247.473122 
L 108.634697 232.046358 
L 112.565961 211.171772 
L 119.305272 173.846508 
L 124.921364 143.250653 
L 128.571824 124.555518 
L 131.660674 109.894653 
L 134.187916 98.889679 
L 136.434353 89.973744 
L 138.68079 81.963174 
L 140.646422 75.75772 
L 142.331249 71.072758 
L 144.016077 67.000071 
L 145.700905 63.561814 
L 147.104928 61.194835 
L 148.508951 59.29043 
L 149.632169 58.104854 
L 150.755388 57.222831 
L 151.878606 56.646495 
L 153.001824 56.37724 
L 153.844238 56.37724 
L 154.686652 56.550354 
L 155.80987 57.050022 
L 156.933089 57.855794 
L 158.056307 58.965722 
L 159.179526 60.377122 
L 160.583549 62.560047 
L 161.987572 65.200387 
L 163.391595 68.288165 
L 165.076422 72.567573 
L 166.76125 77.451123 
L 168.726882 83.876546 
L 170.692515 91.040411 
L 172.938951 100.063626 
L 175.466193 111.175676 
L 178.274239 124.555518 
L 181.643894 141.769758 
L 185.855963 164.520567 
L 198.211366 232.046358 
L 201.581021 248.8218 
L 204.389067 261.733493 
L 206.916309 272.350707 
L 209.162746 280.880654 
L 211.128378 287.575559 
L 213.09401 293.50079 
L 214.778838 297.933547 
L 216.463665 301.744385 
L 217.867688 304.429946 
L 219.271711 306.659013 
L 220.675734 308.423163 
L 221.798953 309.495203 
L 222.922171 310.262804 
L 224.04539 310.724108 
L 224.887804 310.86838 
L 225.168608 310.878 
L 225.168608 310.878 
" clip-path="url(#pa233226100)" style="fill: none; stroke: #1f77b4; stroke-width: 1.5; stroke-linecap: square"/>
   </g>
   <g id="line2d_14">
    <path d="M 153.563434 310.878 
L 154.405847 310.791428 
L 155.248261 310.53183 
L 156.37148 309.917192 
L 157.494698 308.997093 
L 158.617917 307.773759 
L 159.741135 306.250149 
L 161.145158 303.929054 
L 162.549181 301.153357 
L 164.234009 297.237333 
L 165.918836 292.703178 
L 167.884469 286.665171 
L 169.850101 279.86423 
L 172.096538 271.222358 
L 174.623779 260.492317 
L 177.431825 247.473122 
L 180.520676 232.046358 
L 184.45194 211.171772 
L 191.191251 173.846508 
L 196.807343 143.250653 
L 200.457803 124.555518 
L 203.546653 109.894653 
L 206.073895 98.889679 
L 208.320332 89.973744 
L 210.566769 81.963174 
L 212.532401 75.75772 
L 214.217229 71.072758 
L 215.902056 67.000071 
L 217.586884 63.561814 
L 218.990907 61.194835 
L 220.39493 59.29043 
L 221.518148 58.104854 
L 222.641367 57.222831 
L 223.764585 56.646495 
L 224.887804 56.37724 
L 225.730217 56.37724 
L 226.572631 56.550354 
L 227.69585 57.050022 
L 228.819068 57.855794 
L 229.942286 58.965722 
L 231.065505 60.377122 
L 232.469528 62.560047 
L 233.873551 65.200387 
L 235.277574 68.288165 
L 236.962402 72.567573 
L 238.647229 77.451123 
L 240.612861 83.876546 
L 242.578494 91.040411 
L 244.824931 100.063626 
L 247.352172 111.175676 
L 250.160218 124.555518 
L 253.529873 141.769758 
L 257.741942 164.520567 
L 270.097345 232.046358 
L 273.467 248.8218 
L 276.275046 261.733493 
L 278.802288 272.350707 
L 281.048725 280.880654 
L 283.014357 287.575559 
L 284.979989 293.50079 
L 286.664817 297.933547 
L 288.349644 301.744385 
L 289.753667 304.429946 
L 291.157691 306.659013 
L 292.561714 308.423163 
L 293.684932 309.495203 
L 294.80815 310.262804 
L 295.931369 310.724108 
L 296.773783 310.86838 
L 297.054587 310.878 
L 297.054587 310.878 
" clip-path="url(#pa233226100)" style="fill: none; stroke: #ff7f0e; stroke-width: 1.5; stroke-linecap: square"/>
   </g>
   <g id="line2d_15">
    <path d="M 225.449413 310.878 
L 226.291827 310.791428 
L 227.13424 310.53183 
L 228.257459 309.917192 
L 229.380677 308.997093 
L 230.503896 307.773759 
L 231.627114 306.250149 
L 233.031137 303.929054 
L 234.43516 301.153357 
L 236.119988 297.237333 
L 237.804815 292.703178 
L 239.770448 286.665171 
L 241.73608 279.86423 
L 243.982517 271.222358 
L 246.509758 260.492317 
L 249.317804 247.473122 
L 252.406655 232.046358 
L 256.337919 211.171772 
L 263.07723 173.846508 
L 268.693322 143.250653 
L 272.343782 124.555518 
L 275.432633 109.894653 
L 277.959874 98.889679 
L 280.206311 89.973744 
L 282.452748 81.963174 
L 284.41838 75.75772 
L 286.103208 71.072758 
L 287.788035 67.000071 
L 289.472863 63.561814 
L 290.876886 61.194835 
L 292.280909 59.29043 
L 293.404127 58.104854 
L 294.527346 57.222831 
L 295.650564 56.646495 
L 296.773783 56.37724 
L 297.616196 56.37724 
L 298.45861 56.550354 
L 299.581829 57.050022 
L 300.705047 57.855794 
L 301.828266 58.965722 
L 302.951484 60.377122 
L 304.355507 62.560047 
L 305.75953 65.200387 
L 307.163553 68.288165 
L 308.848381 72.567573 
L 310.533208 77.451123 
L 312.498841 83.876546 
L 314.464473 91.040411 
L 316.71091 100.063626 
L 319.238151 111.175676 
L 322.046197 124.555518 
L 325.415852 141.769758 
L 329.627922 164.520567 
L 341.983324 232.046358 
L 345.352979 248.8218 
L 348.161026 261.733493 
L 350.688267 272.350707 
L 352.934704 280.880654 
L 354.900336 287.575559 
L 356.865968 293.50079 
L 358.550796 297.933547 
L 360.235624 301.744385 
L 361.639647 304.429946 
L 363.04367 306.659013 
L 364.447693 308.423163 
L 365.570911 309.495203 
L 366.69413 310.262804 
L 367.817348 310.724108 
L 368.659762 310.86838 
L 368.940566 310.878 
L 368.940566 310.878 
" clip-path="url(#pa233226100)" style="fill: none; stroke: #2ca02c; stroke-width: 1.5; stroke-linecap: square"/>
   </g>
   <g id="line2d_16">
    <path d="M 297.335392 310.878 
L 298.177806 310.791428 
L 299.020219 310.53183 
L 300.143438 309.917192 
L 301.266656 308.997093 
L 302.389875 307.773759 
L 303.513093 306.250149 
L 304.917116 303.929054 
L 306.321139 301.153357 
L 308.005967 297.237333 
L 309.690795 292.703178 
L 311.656427 286.665171 
L 313.622059 279.86423 
L 315.868496 271.222358 
L 318.395737 260.492317 
L 321.203783 247.473122 
L 324.292634 232.046358 
L 328.223899 211.171772 
L 334.963209 173.846508 
L 340.579301 143.250653 
L 344.229761 124.555518 
L 347.318612 109.894653 
L 349.845853 98.889679 
L 352.09229 89.973744 
L 354.338727 81.963174 
L 356.304359 75.75772 
L 357.989187 71.072758 
L 359.674014 67.000071 
L 361.358842 63.561814 
L 362.762865 61.194835 
L 364.166888 59.29043 
L 365.290106 58.104854 
L 366.413325 57.222831 
L 367.536543 56.646495 
L 368.659762 56.37724 
L 369.502176 56.37724 
L 370.344589 56.550354 
L 371.467808 57.050022 
L 372.591026 57.855794 
L 373.714245 58.965722 
L 374.837463 60.377122 
L 376.241486 62.560047 
L 377.645509 65.200387 
L 379.049532 68.288165 
L 380.73436 72.567573 
L 382.419187 77.451123 
L 384.38482 83.876546 
L 386.350452 91.040411 
L 388.596889 100.063626 
L 391.12413 111.175676 
L 393.932176 124.555518 
L 397.301832 141.769758 
L 401.513901 164.520567 
L 413.869303 232.046358 
L 417.238959 248.8218 
L 420.047005 261.733493 
L 422.574246 272.350707 
L 424.820683 280.880654 
L 426.786315 287.575559 
L 428.751947 293.50079 
L 430.436775 297.933547 
L 432.121603 301.744385 
L 433.525626 304.429946 
L 434.929649 306.659013 
L 436.333672 308.423163 
L 437.45689 309.495203 
L 438.580109 310.262804 
L 439.703327 310.724108 
L 440.545741 310.86838 
L 440.826545 310.878 
L 440.826545 310.878 
" clip-path="url(#pa233226100)" style="fill: none; stroke: #d62728; stroke-width: 1.5; stroke-linecap: square"/>
   </g>
   <g id="patch_3">
    <path d="M 63.72 323.604 
L 63.72 43.632 
" style="fill: none; stroke: #000000; stroke-width: 0.8; stroke-linejoin: miter; stroke-linecap: square"/>
   </g>
   <g id="patch_4">
    <path d="M 458.784 323.604 
L 458.784 43.632 
" style="fill: none; stroke: #000000; stroke-width: 0.8; stroke-linejoin: miter; stroke-linecap: square"/>
   </g>
   <g id="patch_5">
    <path d="M 63.72 323.604 
L 458.784 323.604 
" style="fill: none; stroke: #000000; stroke-width: 0.8; stroke-linejoin: miter; stroke-linecap: square"/>
   </g>
   <g id="patch_6">
    <path d="M 63.72 43.632 
L 458.784 43.632 
" style="fill: none; stroke: #000000; stroke-width: 0.8; stroke-linejoin: miter; stroke-linecap: square"/>
   </g>
   <g id="text_15">
    <!-- Window Function per Frame with Frequency Resolution of 512 -->
    <g transform="translate(75.852 37.632)scale(0.12 -0.12)">
     <defs>
      <path id="DejaVuSans-57" d="M 213 4666 
L 850 4666 
L 1831 722 
L 2809 4666 
L 3519 4666 
L 4500 722 
L 5478 4666 
L 6119 4666 
L 4947 0 
L 4153 0 
L 3169 4050 
L 2175 0 
L 1381 0 
L 213 4666 
z
" transform="scale(0.015625)"/>
      <path id="DejaVuSans-6f" d="M 1959 3097 
Q 1497 3097 1228 2736 
Q 959 2375 959 1747 
Q 959 1119 1226 758 
Q 1494 397 1959 397 
Q 2419 397 2687 759 
Q 2956 1122 2956 1747 
Q 2956 2369 2687 2733 
Q 2419 3097 1959 3097 
z
M 1959 3584 
Q 2709 3584 3137 3096 
Q 3566 2609 3566 1747 
Q 3566 888 3137 398 
Q 2709 -91 1959 -91 
Q 1206 -91 779 398 
Q 353 888 353 1747 
Q 353 2609 779 3096 
Q 1206 3584 1959 3584 
z
" transform="scale(0.015625)"/>
      <path id="DejaVuSans-77" d="M 269 3500 
L 844 3500 
L 1563 769 
L 2278 3500 
L 2956 3500 
L 3675 769 
L 4391 3500 
L 4966 3500 
L 4050 0 
L 3372 0 
L 2619 2869 
L 1863 0 
L 1184 0 
L 269 3500 
z
" transform="scale(0.015625)"/>
      <path id="DejaVuSans-46" d="M 628 4666 
L 3309 4666 
L 3309 4134 
L 1259 4134 
L 1259 2759 
L 3109 2759 
L 3109 2228 
L 1259 2228 
L 1259 0 
L 628 0 
L 628 4666 
z
" transform="scale(0.015625)"/>
      <path id="DejaVuSans-63" d="M 3122 3366 
L 3122 2828 
Q 2878 2963 2633 3030 
Q 2388 3097 2138 3097 
Q 1578 3097 1268 2742 
Q 959 2388 959 1747 
Q 959 1106 1268 751 
Q 1578 397 2138 397 
Q 2388 397 2633 464 
Q 2878 531 3122 666 
L 3122 134 
Q 2881 22 2623 -34 
Q 2366 -91 2075 -91 
Q 1284 -91 818 406 
Q 353 903 353 1747 
Q 353 2603 823 3093 
Q 1294 3584 2113 3584 
Q 2378 3584 2631 3529 
Q 2884 3475 3122 3366 
z
" transform="scale(0.015625)"/>
      <path id="DejaVuSans-72" d="M 2631 2963 
Q 2534 3019 2420 3045 
Q 2306 3072 2169 3072 
Q 1681 3072 1420 2755 
Q 1159 2438 1159 1844 
L 1159 0 
L 581 0 
L 581 3500 
L 1159 3500 
L 1159 2956 
Q 1341 3275 1631 3429 
Q 1922 3584 2338 3584 
Q 2397 3584 2469 3576 
Q 2541 3569 2628 3553 
L 2631 2963 
z
" transform="scale(0.015625)"/>
      <path id="DejaVuSans-68" d="M 3513 2113 
L 3513 0 
L 2938 0 
L 2938 2094 
Q 2938 2591 2744 2837 
Q 2550 3084 2163 3084 
Q 1697 3084 1428 2787 
Q 1159 2491 1159 1978 
L 1159 0 
L 581 0 
L 581 4863 
L 1159 4863 
L 1159 2956 
Q 1366 3272 1645 3428 
Q 1925 3584 2291 3584 
Q 2894 3584 3203 3211 
Q 3513 2838 3513 2113 
z
" transform="scale(0.015625)"/>
      <path id="DejaVuSans-71" d="M 947 1747 
Q 947 1113 1208 752 
Q 1469 391 1925 391 
Q 2381 391 2643 752 
Q 2906 1113 2906 1747 
Q 2906 2381 2643 2742 
Q 2381 3103 1925 3103 
Q 1469 3103 1208 2742 
Q 947 2381 947 1747 
z
M 2906 525 
Q 2725 213 2448 61 
Q 2172 -91 1784 -91 
Q 1150 -91 751 415 
Q 353 922 353 1747 
Q 353 2572 751 3078 
Q 1150 3584 1784 3584 
Q 2172 3584 2448 3432 
Q 2725 3281 2906 2969 
L 2906 3500 
L 3481 3500 
L 3481 -1331 
L 2906 -1331 
L 2906 525 
z
" transform="scale(0.015625)"/>
      <path id="DejaVuSans-79" d="M 2059 -325 
Q 1816 -950 1584 -1140 
Q 1353 -1331 966 -1331 
L 506 -1331 
L 506 -850 
L 844 -850 
Q 1081 -850 1212 -737 
Q 1344 -625 1503 -206 
L 1606 56 
L 191 3500 
L 800 3500 
L 1894 763 
L 2988 3500 
L 3597 3500 
L 2059 -325 
z
" transform="scale(0.015625)"/>
      <path id="DejaVuSans-52" d="M 2841 2188 
Q 3044 2119 3236 1894 
Q 3428 1669 3622 1275 
L 4263 0 
L 3584 0 
L 2988 1197 
Q 2756 1666 2539 1819 
Q 2322 1972 1947 1972 
L 1259 1972 
L 1259 0 
L 628 0 
L 628 4666 
L 2053 4666 
Q 2853 4666 3247 4331 
Q 3641 3997 3641 3322 
Q 3641 2881 3436 2590 
Q 3231 2300 2841 2188 
z
M 1259 4147 
L 1259 2491 
L 2053 2491 
Q 2509 2491 2742 2702 
Q 2975 2913 2975 3322 
Q 2975 3731 2742 3939 
Q 2509 4147 2053 4147 
L 1259 4147 
z
" transform="scale(0.015625)"/>
      <path id="DejaVuSans-73" d="M 2834 3397 
L 2834 2853 
Q 2591 2978 2328 3040 
Q 2066 3103 1784 3103 
Q 1356 3103 1142 2972 
Q 928 2841 928 2578 
Q 928 2378 1081 2264 
Q 1234 2150 1697 2047 
L 1894 2003 
Q 2506 1872 2764 1633 
Q 3022 1394 3022 966 
Q 3022 478 2636 193 
Q 2250 -91 1575 -91 
Q 1294 -91 989 -36 
Q 684 19 347 128 
L 347 722 
Q 666 556 975 473 
Q 1284 391 1588 391 
Q 1994 391 2212 530 
Q 2431 669 2431 922 
Q 2431 1156 2273 1281 
Q 2116 1406 1581 1522 
L 1381 1569 
Q 847 1681 609 1914 
Q 372 2147 372 2553 
Q 372 3047 722 3315 
Q 1072 3584 1716 3584 
Q 2034 3584 2315 3537 
Q 2597 3491 2834 3397 
z
" transform="scale(0.015625)"/>
      <path id="DejaVuSans-66" d="M 2375 4863 
L 2375 4384 
L 1825 4384 
Q 1516 4384 1395 4259 
Q 1275 4134 1275 3809 
L 1275 3500 
L 2222 3500 
L 2222 3053 
L 1275 3053 
L 1275 0 
L 697 0 
L 697 3053 
L 147 3053 
L 147 3500 
L 697 3500 
L 697 3744 
Q 697 4328 969 4595 
Q 1241 4863 1831 4863 
L 2375 4863 
z
" transform="scale(0.015625)"/>
     </defs>
     <use xlink:href="#DejaVuSans-57"/>
     <use xlink:href="#DejaVuSans-69" x="96.626953"/>
     <use xlink:href="#DejaVuSans-6e" x="124.410156"/>
     <use xlink:href="#DejaVuSans-64" x="187.789062"/>
     <use xlink:href="#DejaVuSans-6f" x="251.265625"/>
     <use xlink:href="#DejaVuSans-77" x="312.447266"/>
     <use xlink:href="#DejaVuSans-20" x="394.234375"/>
     <use xlink:href="#DejaVuSans-46" x="426.021484"/>
     <use xlink:href="#DejaVuSans-75" x="478.041016"/>
     <use xlink:href="#DejaVuSans-6e" x="541.419922"/>
     <use xlink:href="#DejaVuSans-63" x="604.798828"/>
     <use xlink:href="#DejaVuSans-74" x="659.779297"/>
     <use xlink:href="#DejaVuSans-69" x="698.988281"/>
     <use xlink:href="#DejaVuSans-6f" x="726.771484"/>
     <use xlink:href="#DejaVuSans-6e" x="787.953125"/>
     <use xlink:href="#DejaVuSans-20" x="851.332031"/>
     <use xlink:href="#DejaVuSans-70" x="883.119141"/>
     <use xlink:href="#DejaVuSans-65" x="946.595703"/>
     <use xlink:href="#DejaVuSans-72" x="1008.119141"/>
     <use xlink:href="#DejaVuSans-20" x="1049.232422"/>
     <use xlink:href="#DejaVuSans-46" x="1081.019531"/>
     <use xlink:href="#DejaVuSans-72" x="1131.289062"/>
     <use xlink:href="#DejaVuSans-61" x="1172.402344"/>
     <use xlink:href="#DejaVuSans-6d" x="1233.681641"/>
     <use xlink:href="#DejaVuSans-65" x="1331.09375"/>
     <use xlink:href="#DejaVuSans-20" x="1392.617188"/>
     <use xlink:href="#DejaVuSans-77" x="1424.404297"/>
     <use xlink:href="#DejaVuSans-69" x="1506.191406"/>
     <use xlink:href="#DejaVuSans-74" x="1533.974609"/>
     <use xlink:href="#DejaVuSans-68" x="1573.183594"/>
     <use xlink:href="#DejaVuSans-20" x="1636.5625"/>
     <use xlink:href="#DejaVuSans-46" x="1668.349609"/>
     <use xlink:href="#DejaVuSans-72" x="1718.619141"/>
     <use xlink:href="#DejaVuSans-65" x="1757.482422"/>
     <use xlink:href="#DejaVuSans-71" x="1819.005859"/>
     <use xlink:href="#DejaVuSans-75" x="1882.482422"/>
     <use xlink:href="#DejaVuSans-65" x="1945.861328"/>
     <use xlink:href="#DejaVuSans-6e" x="2007.384766"/>
     <use xlink:href="#DejaVuSans-63" x="2070.763672"/>
     <use xlink:href="#DejaVuSans-79" x="2125.744141"/>
     <use xlink:href="#DejaVuSans-20" x="2184.923828"/>
     <use xlink:href="#DejaVuSans-52" x="2216.710938"/>
     <use xlink:href="#DejaVuSans-65" x="2281.693359"/>
     <use xlink:href="#DejaVuSans-73" x="2343.216797"/>
     <use xlink:href="#DejaVuSans-6f" x="2395.316406"/>
     <use xlink:href="#DejaVuSans-6c" x="2456.498047"/>
     <use xlink:href="#DejaVuSans-75" x="2484.28125"/>
     <use xlink:href="#DejaVuSans-74" x="2547.660156"/>
     <use xlink:href="#DejaVuSans-69" x="2586.869141"/>
     <use xlink:href="#DejaVuSans-6f" x="2614.652344"/>
     <use xlink:href="#DejaVuSans-6e" x="2675.833984"/>
     <use xlink:href="#DejaVuSans-20" x="2739.212891"/>
     <use xlink:href="#DejaVuSans-6f" x="2771"/>
     <use xlink:href="#DejaVuSans-66" x="2832.181641"/>
     <use xlink:href="#DejaVuSans-20" x="2867.386719"/>
     <use xlink:href="#DejaVuSans-35" x="2899.173828"/>
     <use xlink:href="#DejaVuSans-31" x="2962.796875"/>
     <use xlink:href="#DejaVuSans-32" x="3026.419922"/>
    </g>
   </g>
   <g id="legend_1">
    <g id="patch_7">
     <path d="M 380.59025 214.47425 
L 451.784 214.47425 
Q 453.784 214.47425 453.784 212.47425 
L 453.784 154.76175 
Q 453.784 152.76175 451.784 152.76175 
L 380.59025 152.76175 
Q 378.59025 152.76175 378.59025 154.76175 
L 378.59025 212.47425 
Q 378.59025 214.47425 380.59025 214.47425 
z
" style="fill: #ffffff; opacity: 0.8; stroke: #cccccc; stroke-linejoin: miter"/>
    </g>
    <g id="line2d_17">
     <path d="M 382.59025 160.860187 
L 392.59025 160.860187 
L 402.59025 160.860187 
" style="fill: none; stroke: #1f77b4; stroke-width: 1.5; stroke-linecap: square"/>
    </g>
    <g id="text_16">
     <!-- frame 0 -->
     <g transform="translate(410.59025 164.360187)scale(0.1 -0.1)">
      <use xlink:href="#DejaVuSans-66"/>
      <use xlink:href="#DejaVuSans-72" x="35.205078"/>
      <use xlink:href="#DejaVuSans-61" x="76.318359"/>
      <use xlink:href="#DejaVuSans-6d" x="137.597656"/>
      <use xlink:href="#DejaVuSans-65" x="235.009766"/>
      <use xlink:href="#DejaVuSans-20" x="296.533203"/>
      <use xlink:href="#DejaVuSans-30" x="328.320312"/>
     </g>
    </g>
    <g id="line2d_18">
     <path d="M 382.59025 175.538312 
L 392.59025 175.538312 
L 402.59025 175.538312 
" style="fill: none; stroke: #ff7f0e; stroke-width: 1.5; stroke-linecap: square"/>
    </g>
    <g id="text_17">
     <!-- frame 1 -->
     <g transform="translate(410.59025 179.038312)scale(0.1 -0.1)">
      <use xlink:href="#DejaVuSans-66"/>
      <use xlink:href="#DejaVuSans-72" x="35.205078"/>
      <use xlink:href="#DejaVuSans-61" x="76.318359"/>
      <use xlink:href="#DejaVuSans-6d" x="137.597656"/>
      <use xlink:href="#DejaVuSans-65" x="235.009766"/>
      <use xlink:href="#DejaVuSans-20" x="296.533203"/>
      <use xlink:href="#DejaVuSans-31" x="328.320312"/>
     </g>
    </g>
    <g id="line2d_19">
     <path d="M 382.59025 190.216437 
L 392.59025 190.216437 
L 402.59025 190.216437 
" style="fill: none; stroke: #2ca02c; stroke-width: 1.5; stroke-linecap: square"/>
    </g>
    <g id="text_18">
     <!-- frame 2 -->
     <g transform="translate(410.59025 193.716437)scale(0.1 -0.1)">
      <use xlink:href="#DejaVuSans-66"/>
      <use xlink:href="#DejaVuSans-72" x="35.205078"/>
      <use xlink:href="#DejaVuSans-61" x="76.318359"/>
      <use xlink:href="#DejaVuSans-6d" x="137.597656"/>
      <use xlink:href="#DejaVuSans-65" x="235.009766"/>
      <use xlink:href="#DejaVuSans-20" x="296.533203"/>
      <use xlink:href="#DejaVuSans-32" x="328.320312"/>
     </g>
    </g>
    <g id="line2d_20">
     <path d="M 382.59025 204.894563 
L 392.59025 204.894563 
L 402.59025 204.894563 
" style="fill: none; stroke: #d62728; stroke-width: 1.5; stroke-linecap: square"/>
    </g>
    <g id="text_19">
     <!-- frame 3 -->
     <g transform="translate(410.59025 208.394563)scale(0.1 -0.1)">
      <defs>
       <path id="DejaVuSans-33" d="M 2597 2516 
Q 3050 2419 3304 2112 
Q 3559 1806 3559 1356 
Q 3559 666 3084 287 
Q 2609 -91 1734 -91 
Q 1441 -91 1130 -33 
Q 819 25 488 141 
L 488 750 
Q 750 597 1062 519 
Q 1375 441 1716 441 
Q 2309 441 2620 675 
Q 2931 909 2931 1356 
Q 2931 1769 2642 2001 
Q 2353 2234 1838 2234 
L 1294 2234 
L 1294 2753 
L 1863 2753 
Q 2328 2753 2575 2939 
Q 2822 3125 2822 3475 
Q 2822 3834 2567 4026 
Q 2313 4219 1838 4219 
Q 1578 4219 1281 4162 
Q 984 4106 628 3988 
L 628 4550 
Q 988 4650 1302 4700 
Q 1616 4750 1894 4750 
Q 2613 4750 3031 4423 
Q 3450 4097 3450 3541 
Q 3450 3153 3228 2886 
Q 3006 2619 2597 2516 
z
" transform="scale(0.015625)"/>
      </defs>
      <use xlink:href="#DejaVuSans-66"/>
      <use xlink:href="#DejaVuSans-72" x="35.205078"/>
      <use xlink:href="#DejaVuSans-61" x="76.318359"/>
      <use xlink:href="#DejaVuSans-6d" x="137.597656"/>
      <use xlink:href="#DejaVuSans-65" x="235.009766"/>
      <use xlink:href="#DejaVuSans-20" x="296.533203"/>
      <use xlink:href="#DejaVuSans-33" x="328.320312"/>
     </g>
    </g>
   </g>
  </g>
 </g>
 <defs>
  <clipPath id="pa233226100">
   <rect x="63.72" y="43.632" width="395.064" height="279.972"/>
  </clipPath>
 </defs>
</svg>
